# xmcd
#
# Track frame offsets: 
#        150
#        10217
#        24419
#        32568
#        43059
#        54368
#        65667
#        76549
#        86547
#        94967
#        109759
#        119866
#        129697
#        144602
#        155842
#        166101
#        180306
#        189617
#        201353
#        210787
#        219625
#        230173
#        241397
#        252309
#        263735
#        278376
#        286956
#        296751
#        307023
#        316734
#
# Disc length: 4368 seconds
#
# Revision: 0
# Processed by: cddbd v1.5PL3 Copyright (c) Steve Scherf et al.
# Submitted via: ExactAudioCopy v0.95a5
#
DISCID=b2110e1e
DTITLE=30 Mandolin Classics - Nashville Mandolins
DYEAR=2003
DGENRE=Country
TTITLE0=Wabash Cannonball
TTITLE1=Down To The River To Pray
TTITLE2=Red Wing
TTITLE3=Give Me That Old Time Religion
TTITLE4=Jesus Loves Me
TTITLE5=When I Grow Old To Dream
TTITLE6=Big Rock Candy Mountain
TTITLE7=Beautiful Life
TTITLE8=Golden Slippers
TTITLE9=Wayfaring Stranger
TTITLE10=Grandfarther's Clock
TTITLE11=Whiskey Before Breakfast
TTITLE12=Rock Of Ages
TTITLE13=Spanish Two-Step
TTITLE14=Sweet Bunch Of Daisies
TTITLE15=Keep On The Sunny Side
TTITLE16=In The Sweet By And By
TTITLE17=Flop Eared Mule
TTITLE18=When The Saints Go Marching In
TTITLE19=Beneath The Weeping Willow
TTITLE20=Lorena
TTITLE21=When They Ring Those Golden Bells
TTITLE22=Bugle Call Rag
TTITLE23=In The Garden
TTITLE24=Cripple Creek
TTITLE25=He's Got The Whole World In His Hands
TTITLE26=Seneca Square Dance
TTITLE27=Take Me Out To The Ball Game
TTITLE28=On The Banks Of The Ohio
TTITLE29=Softly And Tenderly
EXTD=
EXTT0=
EXTT1=
EXTT2=
EXTT3=
EXTT4=
EXTT5=
EXTT6=
EXTT7=
EXTT8=
EXTT9=
EXTT10=
EXTT11=
EXTT12=
EXTT13=
EXTT14=
EXTT15=
EXTT16=
EXTT17=
EXTT18=
EXTT19=
EXTT20=
EXTT21=
EXTT22=
EXTT23=
EXTT24=
EXTT25=
EXTT26=
EXTT27=
EXTT28=
EXTT29=
PLAYORDER=
